<svg xmlns="http://www.w3.org/2000/svg" width="56" height="56" viewBox="0 0 56 56">
  <metadata><?xpacket begin="﻿" id="W5M0MpCehiHzreSzNTczkc9d"?>
<x:xmpmeta xmlns:x="adobe:ns:meta/" x:xmptk="Adobe XMP Core 5.6-c138 79.159824, 2016/09/14-01:09:01        ">
   <rdf:RDF xmlns:rdf="http://www.w3.org/1999/02/22-rdf-syntax-ns#">
      <rdf:Description rdf:about=""/>
   </rdf:RDF>
</x:xmpmeta>                      
<?xpacket end="w"?></metadata>
<defs>
    <style>
      .cls-1 {
        fill: gray;
        fill-rule: evenodd;
      }
     .st0{fill:#B8BECC;}
	    .st1{fill:#525866;}
    </style>
  </defs>
<!--   <g class="app-shadow">
  <path id="椭圆_2_1_" class="st0" d="M39,27H29V17c0-5.5,4.5-10,10-10s10,4.5,10,10S44.5,27,39,27z M17,49c-5.5,0-10-4.5-10-10
	s4.5-10,10-10h10v10C27,44.5,22.5,49,17,49z M7,17c0-5.5,4.5-10,10-10s10,4.5,10,10v10H17C11.5,27,7,22.5,7,17z"/>
  </g>  
  
  <g class="app-broder">
  <path id="椭圆_2" data-name="椭圆 2" class="cls-1" d="M292,1640H282v-10A10,10,0,1,1,292,1640Zm0-18a8,8,0,0,0-8,8v8h8A8,8,0,0,0,292,1622Zm-22,40a10,10,0,0,1,0-20h10v10A10,10,0,0,1,270,1662Zm8-18h-8a8,8,0,1,0,8,8v-8Zm-18-14a10,10,0,0,1,20,0v10H270A10,10,0,0,1,260,1630Zm18,8v-8a8,8,0,1,0-8,8h8Zm24,14a10,10,0,0,1-20,0v-10h10A10,10,0,0,1,302,1652Zm-18,0a8,8,0,1,0,8-8h-8v8Z" transform="translate(-253 -1613)"/>
  </g> -->
  <g class="app-shadow1">
    <path id="椭圆_2_3_" class="st0" d="M16.9,29h10v10c0,5.5-4.5,10-10,10s-10-4.5-10-10S11.4,29,16.9,29z"/>
  </g>
  <g class="app-shadow3">
    <path id="椭圆_2_2_" class="st0" d="M39,27H29V17c0-5.5,4.5-10,10-10s10,4.5,10,10S44.5,27,39,27z"/>
  </g>
  <g class="app-shadow2">
    <path id="椭圆_2_1_" class="st0" d="M6.9,17c0-5.5,4.5-10,10-10s10,4.5,10,10v10h-10C11.4,27,6.9,22.5,6.9,17z"/>
  </g>
    <path id="椭圆_2" class="st1" d="M39,27H29V17c0-5.5,4.5-10,10-10s10,4.5,10,10S44.5,27,39,27z M39,9c-4.4,0-8,3.6-8,8v8h8
      c4.4,0,8-3.6,8-8S43.4,9,39,9z M17,49c-5.5,0-10-4.5-10-10s4.5-10,10-10h10v10C27,44.5,22.5,49,17,49z M25,31h-8c-4.4,0-8,3.6-8,8
      s3.6,8,8,8s8-3.6,8-8V31z M7,17c0-5.5,4.5-10,10-10s10,4.5,10,10v10H17C11.5,27,7,22.5,7,17z M25,25v-8c0-4.4-3.6-8-8-8s-8,3.6-8,8
      s3.6,8,8,8H25z M49,39c0,5.5-4.5,10-10,10s-10-4.5-10-10V29h10C44.5,29,49,33.5,49,39z M31,39c0,4.4,3.6,8,8,8s8-3.6,8-8s-3.6-8-8-8
      h-8V39z"/>
</svg>
