<?xml version="1.0" standalone="no"?><!DOCTYPE svg PUBLIC "-//W3C//DTD SVG 1.1//EN" "http://www.w3.org/Graphics/SVG/1.1/DTD/svg11.dtd"><svg class="icon" width="200px" height="200.00px" viewBox="0 0 1024 1024" version="1.1" xmlns="http://www.w3.org/2000/svg"><path d="M512 512m-400 0a400 400 0 1 0 800 0 400 400 0 1 0-800 0Z" fill="#FF696E" /><path d="M766.1 416L594.3 753.4c-2.6 4.1-7.8 5.6-12.2 3.4-4.3-2.2-6.3-7.3-4.5-11.8l37.2-72.6-8.6-3 69.3-310.5c3.3-15.2 1.4-31-5.5-44.9l-4.7-9.7-24.3-10.6c-3.4-1.1-5.9-4-6.5-7.5-0.5-3.5 1-7 3.9-9.1s6.8-2.2 9.9-0.5l80.9 34.5c39.2 19 55.6 65.8 36.9 104.9z" fill="#FFBCB4" /><path d="M620.4 661.6c2 1 3.7 2.6 4.9 4.5l129.9-255.5c15.8-33.3 1.7-73.1-31.6-89.1l-45.4-19.4 2.9 5.9c8.1 16.4 10.4 35 6.4 52.8l-67.1 300.8z m-34.4 109c-7.4-0.1-14.2-3.9-18-10.2-3.9-6.2-4.3-14-1.1-20.6l31.4-61.6c-3.4-3-4.9-7.7-3.8-12.1l69.3-310.5c2.8-12.4 1.4-25.4-4.1-36.9l-2.8-5.6-21.5-9c-10.9-4.7-16-17.2-11.3-28.1 4.8-10.7 17.2-15.7 28.1-11.3l80.9 34.6c45.7 21.7 65.1 76.1 43.4 121.6L605.2 758.8c-3.6 7.3-11 12-19.2 12.1v-0.3z" fill="#333333" /><path d="M684.7 360.3l-83.8 375.1a9.29 9.29 0 0 1-11 6.4c-4.8-1-8-5.6-7.3-10.4l16.1-72.6-9.1-1V322.5c0-14.6-4.6-28.8-13.3-40.5l-6.2-8.6-20-4.5c-4.4-1.2-7.3-5.5-6.8-10s4.3-8 8.8-8.3h2.1l69.5 15.9c42.8 9.2 70 51.2 60.8 93.8h0.2z" fill="#AEF9BF" /><path d="M601.9 648c2.1 0.6 4 1.6 5.5 3.1l65.5-293.3c7.8-36.1-15.2-71.6-51.5-79.4l-38.9-8.8 3.9 5.3c10.1 13.9 15.6 30.5 15.6 47.7V648z m-10.1 107.2c-1.5 0.2-3.1 0.2-4.6 0-5.6-1.2-10.4-4.6-13.5-9.4-3.1-4.8-4.1-10.6-2.8-16.1l13.3-59.7c-4-2.1-6.6-6.2-6.6-10.8V322.5c0-12-3.8-23.8-10.9-33.5l-3.5-4.8-15.5-3.5c-5.6-1.2-10.4-4.6-13.4-9.4-3-4.8-4-10.6-2.8-16.1 2.7-11.2 13.8-18.3 25.2-16.2l70.1 16c49.1 10.9 80.1 59.2 69.5 108.1L612.4 738c-2.1 9.8-10.6 16.9-20.6 17.2z" fill="#333333" /><path d="M454.4 243.7h65.3c43.7 0.1 79.1 35.4 79.1 78.9v399.3c-0.2 43.3-35.5 78.3-79.1 78.4h-65.3c-21 0-41.2-8.3-56.1-23.1-14.9-14.8-23.2-34.9-23.2-55.8V322.1c0.3-43.4 35.7-78.4 79.3-78.4z" fill="#FFD96E" /><path d="M375.1 657.3v64.1c0.1 43.5 35.5 78.8 79.3 78.9h65.3c43.7-0.1 79.1-35.4 79.1-78.9v-64.1H375.1z" fill="#FFEFED" /><path d="M519.8 231.6h-65.3c-50.3 0-91.2 40.4-91.5 90.5v399.3c0 50.3 41 91 91.5 91h68.4c0.6 0 1.1 0 1.7-0.1h0.8c0.5 0 1-0.1 1.6-0.1 0.3 0 0.6-0.1 0.9-0.1 0.5 0 0.9-0.1 1.4-0.1 0.3 0 0.7-0.1 1-0.1 0.4 0 0.8-0.1 1.3-0.1 0.4 0 0.7-0.1 1.1-0.2 0.4-0.1 0.8-0.1 1.2-0.2 0.4-0.1 0.7-0.1 1.1-0.2 0.4-0.1 0.8-0.1 1.2-0.2 0.4-0.1 0.8-0.2 1.2-0.2 0.4-0.1 0.7-0.1 1.1-0.2l1.2-0.3c0.3-0.1 0.7-0.1 1-0.2l1.2-0.3c0.3-0.1 0.7-0.2 1-0.2l1.2-0.3c0.3-0.1 0.7-0.2 1-0.3 0.4-0.1 0.8-0.2 1.2-0.4 0.3-0.1 0.7-0.2 1-0.3 0.4-0.1 0.8-0.3 1.2-0.4l0.9-0.3c0.4-0.1 0.8-0.3 1.2-0.4l0.9-0.3c0.4-0.1 0.8-0.3 1.1-0.4 0.3-0.1 0.6-0.2 1-0.4 0.4-0.1 0.7-0.3 1.1-0.5 0.3-0.1 0.6-0.3 1-0.4 0.4-0.2 0.7-0.3 1.1-0.5 0.3-0.1 0.6-0.3 0.9-0.4 0.4-0.2 0.7-0.3 1-0.5 0.3-0.1 0.6-0.3 1-0.4 0.3-0.2 0.7-0.3 1-0.5 0.3-0.2 0.6-0.3 1-0.5 0.3-0.2 0.7-0.3 1-0.5 0.3-0.2 0.6-0.3 1-0.5 0.3-0.2 0.6-0.4 1-0.5 0.3-0.2 0.7-0.4 1-0.5 0.3-0.2 0.6-0.4 0.9-0.5 0.3-0.2 0.7-0.4 1-0.6 0.3-0.2 0.6-0.4 0.9-0.5 0.3-0.2 0.7-0.4 1-0.6 0.3-0.2 0.6-0.4 0.8-0.5 0.3-0.2 0.7-0.4 1-0.7 0.3-0.2 0.5-0.4 0.8-0.5 0.3-0.2 0.7-0.5 1-0.7 0.3-0.2 0.5-0.4 0.8-0.6 0.3-0.2 0.7-0.5 1-0.7 0.2-0.2 0.5-0.4 0.7-0.6 0.3-0.3 0.7-0.5 1-0.8 0.2-0.2 0.5-0.4 0.7-0.6 0.3-0.3 0.7-0.5 1-0.8 0.2-0.2 0.4-0.4 0.7-0.6 0.3-0.3 0.7-0.6 1-0.8l0.6-0.6c0.3-0.3 0.7-0.6 1-0.9l0.6-0.6c0.3-0.3 0.7-0.6 1-0.9l0.6-0.6c0.3-0.3 0.7-0.6 1-0.9l0.6-0.6c0.3-0.3 0.6-0.7 1-1 0.2-0.2 0.4-0.4 0.5-0.6 0.3-0.3 0.6-0.7 0.9-1 0.2-0.2 0.4-0.4 0.5-0.6 0.3-0.3 0.6-0.7 0.9-1 0.2-0.2 0.3-0.4 0.5-0.6 0.3-0.4 0.6-0.7 0.9-1.1 0.2-0.2 0.3-0.4 0.5-0.6 0.3-0.4 0.6-0.7 0.9-1.1 0.2-0.2 0.3-0.4 0.5-0.6 0.3-0.4 0.6-0.7 0.9-1.1 0.2-0.2 0.3-0.4 0.5-0.6 0.3-0.4 0.5-0.7 0.8-1.1 0.2-0.2 0.3-0.4 0.5-0.7 0.3-0.4 0.5-0.8 0.8-1.1 0.2-0.2 0.3-0.5 0.5-0.7 0.3-0.4 0.5-0.8 0.8-1.1 0.2-0.2 0.3-0.5 0.4-0.7 0.2-0.4 0.5-0.8 0.7-1.2 0.1-0.2 0.3-0.5 0.4-0.7 0.2-0.4 0.5-0.8 0.7-1.2 0.1-0.3 0.3-0.5 0.4-0.8l0.6-1.2c0.1-0.3 0.3-0.5 0.4-0.8l0.6-1.2c0.1-0.3 0.3-0.5 0.4-0.8l0.6-1.2c0.1-0.3 0.3-0.6 0.4-0.8 0.2-0.4 0.4-0.8 0.5-1.2 0.1-0.3 0.3-0.6 0.4-0.9 0.2-0.4 0.3-0.8 0.5-1.2 0.1-0.3 0.2-0.6 0.4-0.9 0.2-0.4 0.3-0.8 0.5-1.2 0.1-0.3 0.2-0.6 0.4-0.9 0.1-0.4 0.3-0.8 0.4-1.1l0.3-0.9c0.1-0.4 0.3-0.8 0.4-1.2 0.1-0.3 0.2-0.6 0.3-1 0.1-0.4 0.3-0.8 0.4-1.1 0.1-0.3 0.2-0.7 0.3-1 0.1-0.4 0.2-0.8 0.3-1.1 0.1-0.3 0.2-0.7 0.3-1 0.1-0.4 0.2-0.8 0.3-1.1 0.1-0.3 0.2-0.7 0.3-1 0.1-0.4 0.2-0.8 0.3-1.1 0.1-0.3 0.2-0.7 0.2-1.1 0.1-0.4 0.2-0.8 0.3-1.1 0.1-0.4 0.1-0.7 0.2-1.1 0.1-0.4 0.2-0.8 0.2-1.2 0.1-0.4 0.1-0.7 0.2-1.1 0.1-0.4 0.1-0.8 0.2-1.2 0.1-0.4 0.1-0.7 0.2-1.1 0.1-0.4 0.1-0.8 0.2-1.2 0-0.4 0.1-0.7 0.1-1.1 0-0.4 0.1-0.8 0.1-1.2 0-0.4 0.1-0.7 0.1-1.1 0-0.4 0.1-0.8 0.1-1.2 0-0.3 0-0.7 0.1-1 0-0.4 0.1-0.8 0.1-1.3v-1c0-0.4 0-0.9 0.1-1.3v-1-400.3c-0.7-50.2-41.4-90.8-91.8-90.9z m-65.4 556.6c-1.1 0-2.2 0-3.4-0.1-1.1-0.1-2.1-0.1-3.2-0.2h-0.1c-14.3-1.4-27.8-7.3-38.4-16.9l-0.1-0.1c-0.8-0.7-1.5-1.4-2.2-2.1-0.2-0.2-0.4-0.5-0.7-0.7-0.5-0.6-1.1-1.1-1.6-1.7-0.2-0.3-0.5-0.5-0.7-0.8-0.5-0.6-1-1.1-1.5-1.7-0.2-0.2-0.4-0.5-0.6-0.7-0.5-0.6-1-1.2-1.5-1.9-0.1-0.2-0.3-0.4-0.4-0.6l-1.5-2.1c-0.1-0.1-0.2-0.3-0.2-0.4l-1.5-2.4-0.1-0.1c-3.9-6.5-6.7-13.6-8.2-21.1v-0.1c-0.2-1-0.4-2-0.5-3 0-0.2-0.1-0.4-0.1-0.6-0.1-0.9-0.2-1.7-0.3-2.6 0-0.4-0.1-0.8-0.1-1.1-0.1-0.7-0.1-1.4-0.2-2.1v-1.6-53.9h199.4v52c0 36.8-29.9 66.7-66.9 66.8h-65.4z m-67.1-143V322.5c0.1-36.8 30.1-66.7 67.2-66.7h65.3c36.8 0.1 66.7 29.7 66.9 66.3v323.1H387.3z" fill="#333333" /><path d="M462.6 728.8c0 8.6 4.6 16.6 12.2 21 7.5 4.3 16.8 4.3 24.3 0s12.2-12.3 12.2-21c0-8.6-4.6-16.6-12.2-21-7.5-4.3-16.8-4.3-24.3 0-7.6 4.4-12.2 12.4-12.2 21z" fill="#333333" /></svg>